<?xml version="1.0" encoding="UTF-8"?><svg id="Layer_1" xmlns="http://www.w3.org/2000/svg" viewBox="0 0 95 99.47"><defs><style>.cls-1{fill:#fff;}.cls-2{fill:#4165ae;}.cls-3{fill:#3b5fa9;}.cls-4{fill:#3d62ac;}.cls-5{fill:#3c61ab;}.cls-6{fill:#f2f4fb;}.cls-7{fill:#3356a1;}.cls-8{fill:#375aa6;}.cls-9{fill:#3d61a9;}.cls-10{fill:#f6f8fd;}.cls-11{fill:#7db5e3;}.cls-12{fill:#f9fafd;}.cls-13{fill:#395da8;}.cls-14{fill:#375ba7;}.cls-15{fill:#6181c0;}</style></defs><path class="cls-1" d="M0,99.21c31.19,0,62.38,0,93.57,.02,.96,0,1.19-.23,1.19-1.19-.03-32.68-.02-65.36-.02-98.04,.44,.19,.2,.57,.2,.85,.02,7.72,.01,15.44,.01,23.16,0,24.86,0,49.71,.02,74.57,0,.73-.14,.87-.87,.87-31.08-.02-62.17-.02-93.25-.03-.28,0-.66,.24-.85-.2Z"/><path class="cls-7" d="M82.57,41.81c0,8.85-.16,17.71,.07,26.55,.11,4.21-3.56,9.19-9.26,9.17-14.9-.05-29.81-.01-44.71,0-2.9,0-5.81,.01-8.71-.01-4.06-.04-7.63-2.8-8.71-6.7-.15-.55-.22-1.1-.22-1.68,0-17.88,0-35.76,0-53.64,0-5.5,4.02-9.5,9.54-9.5,17.56,0,35.12,0,52.67,0,4.14,0,7.46,2.27,8.89,6.02,.31,.8,.43,1.63,.43,2.49-.01,9.1,0,18.2,0,27.3Zm-.19,10.45c0-6.87,0-13.74,0-20.61,0-4.7,0-9.4,.04-14.1,0-.8-.23-1.42-.73-2.02-2.41-2.91-5.12-5.54-7.92-8.06-.63-.57-1.3-1.31-2.33-1.31-4.7,.02-9.4,.02-14.1,.03h-22.09c-4.38,0-8.77-.02-13.15-.02-.27,0-.56-.06-.8,.16-1.97,1.85-4.19,3.4-6.02,5.41-1.21,1.33-2.27,2.78-3.47,4.11-.35,.4-.57,.71-.57,1.26,.02,4.35,.02,8.7,.02,13.05v23.58c0,4.31,0,8.63,0,12.94,0,.39,.03,.74,.31,1.08,2.78,3.39,5.91,6.42,9.25,9.25,.34,.29,.69,.31,1.08,.31,4.38,0,8.77-.01,13.15-.02,7.51,0,15.01,0,22.52,0,4.59,0,9.19-.01,13.78,.03,.77,0,1.33-.22,1.89-.71,2.72-2.35,5.24-4.91,7.69-7.54,.6-.65,1.5-1.2,1.5-2.32-.02-4.84-.02-9.68-.03-14.52Z"/><path class="cls-9" d="M48.28,90.19c0-1.8,.02-3.61-.01-5.41-.01-.67,.17-.96,.9-.91,.88,.06,1.77,0,2.65,.02,2.08,.02,3.66,1.47,3.73,3.54,.06,1.84,.07,3.68,0,5.52-.08,2.21-1.72,3.71-3.94,3.73-.85,0-1.7-.03-2.54,.01-.67,.04-.85-.24-.84-.87,.03-1.87,.01-3.75,.01-5.62h.04Zm2.31-.01h-.02c0,.99-.02,1.98,.01,2.96,.01,.39-.24,.97,.24,1.14,.59,.21,1.26,.19,1.81-.24,.44-.35,.63-.83,.63-1.39,0-1.62,0-3.25,0-4.87,0-.24-.04-.5-.13-.72-.37-.96-1.21-1.02-2.03-.92-.84,.1-.46,.83-.48,1.28-.06,.91-.02,1.83-.02,2.75Z"/><path class="cls-9" d="M36.93,90.27c0-.99-.02-1.98,0-2.97,.04-2.06,1.62-3.62,3.63-3.63,2.01,0,3.59,1.56,3.63,3.63,.03,1.98,.04,3.96,.01,5.93-.03,2.04-1.66,3.64-3.64,3.64-1.96,0-3.6-1.64-3.63-3.65-.02-.99,0-1.98,0-2.97Zm4.95,.08h-.02c0-1.03,.03-2.05,0-3.08-.03-.78-.46-1.29-1.26-1.29-.84,0-1.31,.5-1.32,1.34-.02,1.94-.02,3.89,0,5.83,0,.81,.41,1.39,1.26,1.4,.9,0,1.32-.59,1.34-1.45,.03-.92,0-1.84,0-2.76Z"/><path class="cls-9" d="M63.54,90.29c0,.95,.01,1.91,0,2.86-.04,2.12-1.64,3.74-3.66,3.73-2,0-3.6-1.67-3.62-3.77-.01-1.91-.02-3.81,0-5.72,.02-2.14,1.59-3.72,3.65-3.71,2,0,3.56,1.57,3.61,3.65,.02,.99,0,1.98,0,2.97h.02Zm-4.95-.11c0,.99-.02,1.98,0,2.97,.02,.81,.41,1.38,1.27,1.4,.85,.01,1.31-.53,1.33-1.34,.03-1.98,.02-3.96-.01-5.94-.01-.78-.45-1.29-1.25-1.29-.84,0-1.3,.51-1.33,1.34-.03,.95,0,1.91,0,2.86Z"/><path class="cls-9" d="M31.92,91.41c0-1.31-.07-2.62,.02-3.92,.07-1.05-.22-1.53-1.33-1.34-.84,.15-1.15-.17-1.17-1.08-.02-1,.31-1.24,1.25-1.2,1.73,.07,3.46,.06,5.19,0,.9-.03,.85,.5,.83,1.09-.02,.58,.16,1.21-.83,1.22-1.67,.03-1.67,.08-1.67,1.79,0,2.54-.03,5.09,.04,7.63,.02,.92-.3,1.1-1.14,1.1-.89,0-1.28-.16-1.21-1.16,.09-1.37,.02-2.75,.02-4.13Z"/><path class="cls-14" d="M82.39,31.65c0,6.87,0,13.74,0,20.61-.11,.07-.3,.12-.33,.21-.79,2.29-1.63,4.54-2.82,6.68-1.16,2.09-2.4,4.18-3.94,5.94-2.1,2.39-4.24,4.8-7.04,6.52-1.21,.74-2.37,1.69-3.6,2.38-2.05,1.15-4.22,2.16-6.53,2.76-.27,.07-.54,.2-.56,.56-7.51,0-15.01,0-22.52,0-.07-.53-.56-.48-.89-.59-2.11-.71-4.08-1.72-6.02-2.8-2.93-1.64-5.47-3.78-7.85-6.13-1.95-1.93-3.69-4.04-5.16-6.34-1.38-2.16-2.27-4.57-3.23-6.94-.13-.32-.18-.7-.63-.75,0-7.86,0-15.72,0-23.58,.96-.52,.9-1.62,1.21-2.44,1.05-2.76,2.55-5.27,4.22-7.63,1.55-2.19,3.51-4.09,5.5-5.95,3.33-3.1,7.1-5.34,11.3-6.96,.61-.23,1.44-.2,1.75-1,7.36,0,14.73,0,22.09,0,.03,.4,.37,.51,.65,.61,2.84,1,5.6,2.13,8.16,3.79,1.91,1.24,3.81,2.48,5.45,4.04,1.64,1.56,3.21,3.18,4.5,5.13,.95,1.43,2.11,2.83,2.94,4.32,1.21,2.18,2.24,4.51,2.85,6.97,.06,.26,.09,.58,.48,.61ZM12.73,41.32c.05,2.02-.03,3.43,.22,4.84,.41,2.32,.72,4.65,1.56,6.87,.91,2.37,1.86,4.71,3.38,6.79,1.15,1.58,2.03,3.36,3.45,4.75,1.81,1.77,3.59,3.53,5.72,4.97,2.16,1.46,4.22,2.95,6.73,3.78,.99,.32,2.03,.54,2.98,.96,1.52,.68,3.14,1.13,4.74,1.29,3.68,.37,7.39,.39,11.09,.06,.17-.02,.37-.03,.51-.11,1.54-.9,3.36-.77,5.01-1.46,1.71-.71,3.46-1.38,5.07-2.27,2.3-1.27,4.55-2.66,6.44-4.52,1.36-1.33,2.96-2.49,4.05-4.01,1.98-2.76,3.59-5.77,4.91-8.92,1.21-2.91,1.84-5.94,2.19-9.08,.44-3.95,0-7.81-.72-11.64-.37-2-1.27-3.87-2.11-5.74-1.45-3.24-3.22-6.27-5.71-8.81-2.02-2.06-4.02-4.11-6.55-5.63-1.86-1.12-3.68-2.26-5.7-3.07-1.75-.7-3.53-1.32-5.37-1.82-1.49-.4-2.91-.7-4.44-.67-1.18,.02-2.34-.13-3.53-.11-2.24,.04-4.48-.04-6.67,.57-1.62,.45-3.29,.77-4.85,1.37-3.39,1.3-6.59,3.02-9.41,5.27-2.36,1.88-4.58,3.99-6.29,6.55-1.15,1.72-2.3,3.43-3.18,5.31-.98,2.06-2.09,4.12-2.55,6.33-.6,2.88-1.23,5.8-.96,8.18Z"/><path class="cls-8" d="M82.39,31.65c-.39-.02-.41-.35-.48-.61-.62-2.46-1.65-4.78-2.85-6.97-.83-1.49-1.99-2.89-2.94-4.32-1.29-1.95-2.86-3.57-4.5-5.13-1.64-1.56-3.54-2.8-5.45-4.04-2.55-1.66-5.32-2.79-8.16-3.79-.28-.1-.62-.21-.65-.61,4.7,0,9.4-.01,14.1-.03,1.03,0,1.7,.74,2.33,1.31,2.8,2.52,5.5,5.15,7.92,8.06,.49,.59,.73,1.22,.73,2.02-.04,4.7-.03,9.4-.04,14.1Z"/><path class="cls-8" d="M57.56,77.31c.02-.35,.29-.49,.56-.56,2.31-.6,4.48-1.61,6.53-2.76,1.23-.69,2.38-1.63,3.6-2.38,2.8-1.72,4.94-4.13,7.04-6.52,1.54-1.76,2.77-3.85,3.94-5.94,1.19-2.14,2.03-4.39,2.82-6.68,.03-.1,.22-.14,.33-.21,0,4.84,0,9.68,.03,14.52,0,1.11-.89,1.67-1.5,2.32-2.45,2.62-4.96,5.19-7.69,7.54-.56,.48-1.12,.71-1.89,.71-4.59-.04-9.19-.03-13.78-.03Z"/><path class="cls-8" d="M35.26,6.19c-.31,.79-1.14,.76-1.75,1-4.21,1.62-7.98,3.87-11.3,6.96-2,1.86-3.95,3.76-5.5,5.95-1.67,2.36-3.17,4.87-4.22,7.63-.31,.82-.25,1.92-1.21,2.44,0-4.35,0-8.7-.02-13.05,0-.55,.21-.86,.57-1.26,1.2-1.33,2.26-2.78,3.47-4.11,1.83-2.01,4.05-3.57,6.02-5.41,.24-.23,.53-.16,.8-.16,4.38,0,8.77,.01,13.15,.02Z"/><path class="cls-8" d="M11.27,53.75c.45,.05,.5,.43,.63,.75,.96,2.37,1.85,4.78,3.23,6.94,1.47,2.3,3.22,4.41,5.16,6.34,2.37,2.36,4.92,4.5,7.85,6.13,1.93,1.08,3.9,2.09,6.02,2.8,.33,.11,.82,.06,.89,.59-4.38,0-8.77,0-13.15,.02-.39,0-.74-.02-1.08-.31-3.33-2.83-6.47-5.86-9.25-9.25-.28-.34-.31-.69-.31-1.08,0-4.31,0-8.63,0-12.94Z"/><path class="cls-13" d="M12.73,41.32c-.26-2.38,.36-5.3,.96-8.18,.46-2.21,1.57-4.27,2.55-6.33,.89-1.87,2.04-3.59,3.18-5.31,1.71-2.56,3.93-4.67,6.29-6.55,2.82-2.25,6.03-3.98,9.41-5.27,1.56-.6,3.23-.92,4.85-1.37,2.19-.61,4.42-.54,6.67-.57,1.19-.02,2.35,.13,3.53,.11,1.53-.03,2.95,.27,4.44,.67,1.84,.5,3.61,1.12,5.37,1.82,2.01,.81,3.84,1.95,5.7,3.07,2.53,1.52,4.54,3.57,6.55,5.63,2.49,2.54,4.26,5.58,5.71,8.81,.84,1.87,1.73,3.74,2.11,5.74,.72,3.84,1.16,7.7,.72,11.64-.35,3.14-.98,6.17-2.19,9.08-1.32,3.15-2.92,6.16-4.91,8.92-1.09,1.52-2.7,2.67-4.05,4.01-1.9,1.87-4.14,3.26-6.44,4.52-1.62,.89-3.36,1.56-5.07,2.27-1.65,.69-3.47,.56-5.01,1.46-.14,.08-.34,.1-.51,.11-3.7,.34-7.41,.31-11.09-.06-1.6-.16-3.22-.61-4.74-1.29-.95-.43-1.99-.64-2.98-.96-2.52-.82-4.58-2.32-6.73-3.78-2.13-1.44-3.92-3.2-5.72-4.97-1.42-1.39-2.29-3.17-3.45-4.75-1.52-2.08-2.47-4.42-3.38-6.79-.85-2.21-1.15-4.55-1.56-6.87-.25-1.41-.17-2.81-.22-4.84Zm55.88-18.83v.24c-.07,.56-.15,1.11-.22,1.67-.05,.44-.25,.47-.55,.21-.26-.24-.53-.47-.75-.75-1.66-2.05-3.77-3.64-6-4.91-2.78-1.6-5.71-2.93-8.96-3.57-3.64-.72-7.2-.61-10.78,.07-3.64,.69-6.95,2.2-10,4.3-.52,.36-1,.65-1.63,.16-.34-.27-.59-.08-.64,.34-1.7-1.11-3.53-1.36-5.48-.86-.32-.38-.39-.13-.44,.18-.16,.21-.39,.23-.63,.21-.14,.02-.21,.1-.21,.24-.98,.88-1.83,1.85-2.25,3.13-.24,.1-.39,.22-.12,.45-.1,.85-.12,1.7,.02,2.54l.06,.22,.61,1.48c-.81,.2-.41,1.01-.74,1.49-.8,1.17-1.15,2.58-1.55,3.89-1.03,3.42-1.26,6.96-1.17,10.53,.06,2.39,.73,4.62,1.31,6.9,.5,1.96,1.82,3.67,1.77,5.79l-.34,1.14c-.35,.09-.46,.22-.09,.45-.12,2.58,.96,4.52,3.14,5.86,.17,.64,.51,.82,1.08,.4,1.2,.16,2.39,.14,3.56-.17,.12,.21,.34,.31,.54,.24,1.44-.49,2.32,.5,3.37,1.18,1.99,1.28,4.13,2.3,6.38,3.03,1.93,.63,3.93,1.04,5.96,1.26,2.14,.23,4.27,.1,6.4-.03,2.3-.14,4.5-.8,6.6-1.67,2.4-.99,4.78-2.04,6.83-3.75,1.02-.85,2.09-2.06,3.75-1.55l1.18,.81,.21,.09,.4,.12c.11,.25,.25,.37,.46,.08h1.06c.21,.28,.34,.16,.46-.08,.29-.12,.6-.22,.88-.36,1.91-.98,2.45-3.89,.76-5.06-1.29-.89-.9-1.48-.24-2.34,.17-.22,.31-.47,.45-.72,.62-1.02,.58-1.09-.6-1.25,.14-.54,.19-1.12,.43-1.62,.83-1.75,1.47-3.63,1.8-5.47,.46-2.6,.62-5.3,.35-8-.32-3.14-1.33-6.05-2.41-8.96-.14-.37-.36-.6-.78-.55-.02-2.12-.01-4.24-.06-6.36-.02-.94,.42-2.16-.2-2.75-.61-.59-1.82-.15-2.76-.18-.46-.02-1.1-.18-1.02,.64,.06,.64-.44,1.61,.84,1.62Z"/><path class="cls-3" d="M71.81,29.53c.43-.05,.64,.18,.78,.55,1.08,2.91,2.09,5.83,2.41,8.96,.28,2.7,.12,5.4-.35,8-.33,1.84-.97,3.72-1.8,5.47-.23,.5-.29,1.08-.43,1.62-1.55,.02-3.09,.04-4.64,.07-.33,0-.71-.11-.88,.36-.41,1.15,.07,1.87,1.28,1.87,.18,0,.35-.02,.53,0,.33,.04,.79-.17,.96,.2,.19,.39-.19,.69-.43,.99-.37,.47-.82,1.02-.6,1.59,.21,.55,.88,.25,1.34,.25,.69,0,1.04,.36,1.2,.94,.16,.59-.04,1.03-.66,1.23-.21-.28-.43-.29-.65,0-.55-.08-.6-.59-.82-.94-.74-.54-1.87-.48-2.34,.1-.03,.78,.37,1.4,.71,2.05-1.67-.51-2.74,.7-3.75,1.55-2.05,1.71-4.43,2.76-6.83,3.75-2.1,.87-4.3,1.53-6.6,1.67-2.13,.13-4.26,.26-6.4,.03-2.04-.22-4.04-.63-5.96-1.26-2.24-.74-4.39-1.75-6.38-3.03-1.05-.68-1.92-1.67-3.37-1.18-.2,.07-.42-.03-.54-.24,2.03-1,3.29-2.59,3.66-4.84,.68-.11,1.15,.31,1.59,.69,3.37,2.9,7.39,4.32,11.7,4.79,4.71,.52,9.18-.6,13.39-2.73,.55-.28,1.1-.67,1.1-1.43,.46-.02,.91-.06,1.37-.06q2.21,0,2.36-2.12c1.11-1.37,2.41-2.57,3.38-4.08,1.49-2.3,2.6-4.7,3.09-7.39,.64-.1,1.27-.09,1.91,0l.11,.28,.11-.28c.42-.02,.85-.1,1.27-.05,.94,.12,1.22-.23,1.2-1.17-.01-.87-.24-1.24-1.13-1.13-.3,.04-.62-.06-.94-.1l.02-.55h0c.51,.06,.7-.18,.63-.67,.08-.57,.53-.94,.78-1.42,1.09-2.06,.09-4.25-2.16-4.7-.44-.09-.9-.08-1.36-.11,.07-.61-.55-.86-.69-1.39-.65-2.61-1.72-5.05-3.28-7.23-.76-1.05-1.45-2.27-2.93-2.53-.02-.74-.06-1.47-.04-2.21,.01-.55-.2-.74-.74-.74-.98,0-1.96-.03-2.94-.05,.06-.68-.42-1.11-.89-1.33-1.18-.53-2.34-1.16-3.55-1.56-3.36-1.11-6.79-1.7-10.36-1.14-4.06,.63-7.86,1.85-11.16,4.41-.49,.38-.97,.83-1.64,.91-.02-.25,.05-.54-.29-.64-.37-1.31-1.13-2.38-2.07-3.34,.05-.42,.3-.61,.64-.34,.62,.49,1.11,.2,1.63-.16,3.05-2.1,6.36-3.6,10-4.3,3.58-.68,7.14-.79,10.78-.07,3.25,.64,6.18,1.97,8.96,3.57,2.23,1.28,4.34,2.86,6,4.91,.22,.27,.49,.51,.75,.75,.3,.26,.5,.23,.55-.21,.07-.56,.14-1.11,.22-1.67h.46c.13,1.41,.09,2.83,.02,4.25-.68,.5-.68,1.2,0,1.7,.18,.34-.19,1,.4,1.05,.77,.06,1.59,.29,2.32-.2Z"/><path class="cls-3" d="M20.25,56.43c.05-2.12-1.27-3.83-1.77-5.79-.58-2.28-1.24-4.51-1.31-6.9-.09-3.58,.14-7.12,1.17-10.53,.4-1.31,.75-2.73,1.55-3.89,.33-.48-.07-1.28,.74-1.49,.73,.98,1.65,1.74,2.73,2.32,.05,.2-.12,.52,.24,.54,.2,0,.17-.24,.21-.39l1.03,.2c-.23,.6,.62,.97,.33,1.58-.6,1.26-.51,2.88-1.96,3.7-.31,.17-.3,.53-.26,.86-.2,.22-.45,.36-.75,.41-.35-.12-.73-.52-1.03,.08-.2,.38,.02,.48,.34,.53-.65,.92-1.3,1.81-1.56,2.96-.44,1.87,.33,3.43,1.1,5.01,.09,1.14,.21,1.24,1.05,.89l.83,.48c-.04,.38,.08,.73,.42,.9,.64,.3,.84,.86,1.07,1.47,.45,1.21,1.03,2.4,.43,3.72l-.82,.13c-.46-.44-.77-.45-.84,.28-1.44,.54-2.14,1.8-2.94,2.97Z"/><path class="cls-10" d="M20.25,56.43c.8-1.16,1.51-2.43,2.94-2.97,.28-.09,.56-.19,.84-.28l.82-.13c1.13,.06,2.26,.05,3.3,.61,2.23,1.21,3.09,3.18,3.12,5.61-.37,2.26-1.63,3.84-3.66,4.84-1.18,.3-2.37,.33-3.56,.17-.36-.13-.72-.26-1.08-.4-2.19-1.34-3.26-3.28-3.14-5.86,.13-.13,.14-.29,.09-.45l.34-1.14Zm5.27,5.6c1.8,0,3.35-1.54,3.34-3.3-.01-1.73-1.54-3.26-3.27-3.28-1.94-.01-3.34,1.41-3.31,3.37,.02,1.84,1.42,3.22,3.24,3.21Z"/><path class="cls-10" d="M23.37,30.14c-1.07-.58-1.99-1.34-2.73-2.32-.2-.49-.41-.99-.61-1.48,.02-.03,.05-.06,.04-.08-.03-.05-.07-.09-.1-.14-.14-.85-.12-1.69-.02-2.54,.14-.12,.19-.27,.12-.45,.42-1.28,1.27-2.25,2.25-3.13,.07-.08,.14-.16,.21-.24,.24,.02,.46,0,.63-.21,.18,.01,.33-.03,.44-.18,1.95-.5,3.78-.25,5.48,.86,.94,.96,1.7,2.03,2.07,3.34-.1,.24-.01,.44,.11,.64l-.04,1.48c-.14,.12-.16,.26-.1,.43-1.01,3-3.11,4.44-6.27,4.34-.34-.07-.69-.13-1.03-.2-.15-.05-.3-.09-.45-.14Zm2.21-2.08c1.75,0,3.28-1.5,3.29-3.21,0-1.75-1.59-3.37-3.29-3.37-1.81,0-3.29,1.51-3.28,3.32,0,1.89,1.39,3.26,3.29,3.26Z"/><path class="cls-6" d="M69.05,60.68c.22,.36,.27,.87,.82,.94,.21,.22,.43,.23,.65,0,.62-.19,.82-.64,.66-1.23-.16-.59-.51-.94-1.2-.94-.46,0-1.13,.3-1.34-.25-.22-.58,.23-1.13,.6-1.59,.24-.3,.62-.59,.43-.99-.18-.37-.63-.15-.96-.2-.17-.02-.35,0-.53,0-1.2,0-1.69-.72-1.28-1.87,.17-.47,.55-.36,.88-.36,1.55-.03,3.09-.05,4.64-.07,1.18,.16,1.21,.22,.6,1.25-.15,.24-.28,.49-.45,.72-.65,.86-1.04,1.45,.24,2.34,1.7,1.17,1.15,4.08-.76,5.06-.28,.14-.58,.24-.88,.36-.17-.09-.33-.07-.46,.08h-1.06c-.13-.15-.28-.17-.46-.08l-.4-.12c-.04-.1-.1-.15-.21-.09-.39-.27-.79-.54-1.18-.81-.34-.65-.75-1.27-.71-2.05,.78-.04,1.56-.07,2.34-.1Z"/><path class="cls-10" d="M69.09,26.98c.08-1.42,.11-2.83-.02-4.25-.04-.3-.24-.3-.46-.24-1.28-.02-.78-.98-.84-1.62-.08-.83,.56-.66,1.02-.64,.94,.04,2.15-.41,2.76,.18,.62,.6,.18,1.81,.2,2.75,.05,2.12,.04,4.24,.06,6.36-.73,.49-1.55,.26-2.32,.2-.58-.04-.22-.7-.4-1.05,.09-.57,.09-1.13,0-1.7Z"/><path class="cls-3" d="M22.96,63.88c.36,.13,.72,.26,1.08,.4-.56,.43-.91,.25-1.08-.4Z"/><path class="cls-15" d="M20.07,23.13c.07,.18,.03,.33-.12,.45-.27-.23-.12-.35,.12-.45Z"/><path class="cls-3" d="M19.91,57.57c.05,.17,.04,.32-.09,.45-.37-.23-.26-.36,.09-.45Z"/><path class="cls-15" d="M69.22,63.86c.17-.09,.33-.06,.46,.08-.21,.28-.34,.16-.46-.08Z"/><path class="cls-15" d="M70.73,63.94c.13-.15,.28-.17,.46-.08-.11,.24-.25,.37-.46,.08Z"/><path class="cls-5" d="M23.6,19.38c-.11,.14-.27,.19-.44,.18,.05-.3,.12-.55,.44-.18Z"/><path class="cls-5" d="M68.61,22.49c.23-.07,.42-.06,.46,.24h-.46v-.24Z"/><path class="cls-15" d="M19.97,26.12s.08,.09,.1,.14c0,.01-.03,.05-.04,.08-.02-.07-.04-.15-.06-.22Z"/><path class="cls-15" d="M68.6,63.65c.11-.06,.17-.02,.21,.09l-.21-.09Z"/><path class="cls-15" d="M22.53,19.76c-.07,.08-.14,.16-.21,.24,0-.14,.07-.22,.21-.24Z"/><path class="cls-5" d="M69.25,46.95c-.49,2.69-1.6,5.09-3.09,7.39-.98,1.51-2.27,2.71-3.38,4.08-.11-1.5-.11-1.49-1.61-1.5-1.2,0-2.4-.04-3.59-.07-.02-.35,.09-.62,.43-.77,2.37-1.04,3.43-3.3,4.62-5.32,1.83-3.12,2.67-6.58,2.39-10.25-.18-2.46-.87-4.73-1.94-6.96-.61-1.27-1.68-2.16-2.23-3.43-.32-.74-.92-1.21-1.45-1.77-.62-.66-1.74-.68-2.03-1.69,1.5-.02,3-.06,4.5-.07,.51,0,.91-.06,.92-.69,1.48,.25,2.17,1.47,2.93,2.53,1.56,2.18,2.63,4.62,3.28,7.23,.13,.53,.76,.78,.69,1.39-2.22,.65-2.77,1.31-2.78,3.33,.68,.61,1.99,.55,2.52-.12,.05-.68,.45-.97,1.07-.78,.61,.19,.6,.74,.43,1.23-.24,.71-.72,1.29-1.19,1.86-.89,1.09-1.8,2.17-2.69,3.26-.2,.24-.46,.49-.25,.84,.18,.29,.51,.17,.78,.19,.56,.03,1.12,.04,1.69,.07Z"/><path class="cls-5" d="M31.27,59.27c-.03-2.43-.89-4.4-3.12-5.61-1.04-.56-2.17-.55-3.3-.61,.6-1.33,.02-2.51-.43-3.72-.22-.6-.43-1.16-1.07-1.47-.34-.16-.45-.52-.42-.9l1.29,.37,.09,.05h.1l.63,.05c.03,.22,.12,.37,.38,.35,.2-.01,.27-.16,.3-.33l.83-.06c.23,.28,.35,.12,.45-.11l1.46-.56c.06,.12,.12,.35,.18,.35,.98,0,1.04,.72,1.35,1.42,.76,1.71,1.49,3.47,2.84,4.85,.84,.85,1.69,1.7,2.54,2.54,.28,.27,.58,.53,.52,.98-.59,.03-.89,.28-.82,.94,.06,.52,.07,1.07,0,1.59-.12,.95,.25,1.18,1.18,1.18,6.33-.04,12.65-.02,18.98-.02,1.27,0,2.54,.04,3.81,.06,0,.76-.55,1.15-1.1,1.43-4.21,2.13-8.68,3.24-13.39,2.73-4.32-.48-8.33-1.89-11.7-4.79-.45-.38-.91-.8-1.59-.69Z"/><path class="cls-5" d="M31.22,25.7c.01-.49,.02-.99,.04-1.48,.06,0,.13,0,.19,0,.67-.08,1.15-.53,1.64-.91,3.29-2.55,7.1-3.77,11.16-4.41,3.57-.56,7,.04,10.36,1.14,1.22,.4,2.38,1.03,3.55,1.56,.47,.21,.96,.64,.89,1.33-.25,.02-.49,.05-.74,.05-7.66,0-15.33,0-22.99,0-.53,.09-.48,.51-.48,.89,0,.9,0,1.79,0,2.69-1.36,.73-2.27,1.94-3.25,3.08-1.74,2.02-2.59,4.53-3.81,6.83l-.84-.26-.22-.07c-1.28-.06-2.55-.02-3.76,.48-.04-.33-.05-.69,.26-.86,1.45-.82,1.36-2.44,1.96-3.7,.29-.61-.56-.98-.33-1.58,3.16,.1,5.25-1.34,6.27-4.34,.28-.08,.4-.21,.1-.43Z"/><path class="cls-12" d="M59.05,60.6c-1.27-.02-2.54-.06-3.81-.06-6.33,0-12.65-.02-18.98,.02-.93,0-1.3-.23-1.18-1.18,.07-.52,.06-1.06,0-1.59-.07-.65,.23-.9,.82-.94,.42,.02,.84,.07,1.26,.07,6.1,0,12.2,0,18.3,0,.7,0,1.41-.04,2.11-.07,1.2,.02,2.4,.06,3.59,.07,1.5,.01,1.5,0,1.61,1.5q-.15,2.12-2.36,2.12c-.46,0-.91,.04-1.37,.06Z"/><path class="cls-12" d="M35.33,22.97c7.66,0,15.33,0,22.99,0,.25,0,.49-.04,.74-.05,.98,.02,1.96,.06,2.94,.05,.54,0,.76,.19,.74,.74-.02,.73,.02,1.47,.04,2.21-.01,.63-.41,.69-.92,.69-1.5,0-3,.04-4.5,.07-.42-.03-.84-.07-1.26-.07-6.95-.01-13.91-.02-20.86-.03,0-1.2-.17-2.4,.09-3.6Z"/><path class="cls-6" d="M66.9,40.39c0-2.02,.55-2.68,2.78-3.33,.45,.03,.92,.02,1.36,.11,2.26,.45,3.26,2.64,2.16,4.7-.25,.48-.7,.85-.78,1.42-.26,.18-.54,.34-.63,.67h0c-.21,.17-.48,.34-.02,.54,.31,.04,.63,.13,.94,.1,.9-.11,1.12,.25,1.13,1.13,.02,.94-.27,1.29-1.2,1.17-.41-.05-.84,.03-1.27,.05h-.21c-.64-.09-1.27-.09-1.91,0-.56-.02-1.12-.03-1.69-.07-.27-.01-.6,.11-.78-.19-.21-.34,.06-.6,.25-.84,.89-1.09,1.8-2.17,2.69-3.26,.47-.57,.94-1.15,1.19-1.86,.17-.5,.19-1.04-.43-1.23-.62-.2-1.02,.1-1.07,.78-.83,.27-1.68,.11-2.52,.12Z"/><path class="cls-15" d="M69.05,60.68c-.78,.03-1.56,.07-2.34,.1,.47-.59,1.6-.64,2.34-.1Z"/><path class="cls-5" d="M69.09,26.98c.09,.57,.09,1.13,0,1.7-.67-.5-.67-1.2,0-1.7Z"/><path class="cls-15" d="M70.53,61.63c-.22,.23-.44,.22-.65,0,.22-.28,.44-.28,.65,0Z"/><path class="cls-5" d="M71.78,43.97c.09-.34,.37-.49,.63-.67,.07,.49-.12,.73-.63,.67Z"/><path class="cls-2" d="M31.44,24.21c-.06,0-.13,0-.19,0-.12-.2-.21-.41-.11-.64,.34,.1,.28,.39,.29,.64Z"/><path class="cls-4" d="M71.16,46.95h.21l-.11,.28-.11-.28Z"/><path class="cls-4" d="M71.77,44.51c-.46-.2-.19-.37,.02-.55l-.02,.55Z"/><path class="cls-10" d="M26.94,36.2c.28,.09,.56,.17,.84,.26,1.22,.69,2.26,1.56,2.9,2.84l.11,.22c0,.07,.02,.14,.07,.19-.05,.18,0,.33,.16,.44l.09,.4c-.09,.24-.08,.47,.12,.66v1.27c-.16,.13-.19,.28-.1,.45l-.1,.4c-.15,.11-.21,.26-.16,.44l-.07,.21-.16,.21c-.49,1.04-1.1,1.99-2.18,2.53-.49,.19-.97,.37-1.46,.56-.18-.08-.33-.04-.45,.11-.28,.02-.55,.04-.83,.06-.22-.1-.45-.1-.67-.02l-.63-.05c-.04-.1-.1-.14-.19-.05l-1.29-.37-.83-.48-1.05-.89c-.77-1.58-1.54-3.14-1.1-5.01,.27-1.14,.91-2.04,1.56-2.96,.28-.14,.53-.33,.69-.61,.3-.05,.54-.19,.75-.41,1.21-.51,2.48-.55,3.76-.48l.22,.07Zm-1.38,8.84c1.79-.02,3.34-1.57,3.31-3.33-.03-1.71-1.67-3.28-3.41-3.25-1.72,.03-3.18,1.56-3.17,3.31,0,1.89,1.4,3.29,3.27,3.26Z"/><path class="cls-5" d="M22.22,37.02c-.16,.28-.41,.46-.69,.61-.32-.04-.53-.14-.34-.53,.3-.6,.68-.19,1.03-.08Z"/><path class="cls-5" d="M21.06,45.59l1.05,.89c-.84,.34-.96,.24-1.05-.89Z"/><path class="cls-5" d="M24.03,53.18c-.28,.09-.56,.19-.84,.28,.06-.73,.38-.73,.84-.28Z"/><path class="cls-5" d="M23.37,30.14c.15,.05,.3,.1,.45,.14-.04,.15-.01,.4-.21,.39-.36-.01-.2-.34-.24-.54Z"/><path class="cls-11" d="M25.53,62.03c-1.82,0-3.22-1.38-3.24-3.21-.02-1.95,1.38-3.38,3.31-3.37,1.72,.01,3.25,1.55,3.27,3.28,.01,1.76-1.54,3.3-3.34,3.3Z"/><path class="cls-11" d="M25.57,28.06c-1.9,0-3.28-1.36-3.29-3.26,0-1.81,1.48-3.31,3.28-3.32,1.71,0,3.3,1.62,3.29,3.37,0,1.71-1.54,3.21-3.29,3.21Z"/><path class="cls-2" d="M31.22,25.7c.3,.22,.17,.35-.1,.43-.06-.17-.03-.31,.1-.43Z"/><path class="cls-4" d="M30.69,39.3c-.64-1.28-1.68-2.15-2.9-2.84,1.22-2.31,2.07-4.81,3.81-6.83,.98-1.14,1.89-2.35,3.25-3.08l.38,.02c6.95,0,13.91,.02,20.86,.03,.42,0,.84,.05,1.26,.07,.29,1.01,1.41,1.03,2.03,1.69,.53,.56,1.14,1.03,1.45,1.77,.54,1.26,1.62,2.16,2.23,3.43,1.07,2.23,1.76,4.5,1.94,6.96,.28,3.67-.56,7.13-2.39,10.25-1.18,2.02-2.24,4.28-4.62,5.32-.34,.15-.45,.42-.43,.77-.7,.02-1.41,.07-2.11,.07-6.1,0-12.2,0-18.3,0-.42,0-.84-.04-1.26-.07,.06-.45-.25-.71-.52-.98-.85-.85-1.7-1.69-2.54-2.54-1.35-1.37-2.08-3.14-2.84-4.85-.31-.7-.38-1.42-1.35-1.42-.06,0-.12-.22-.18-.35,1.08-.54,1.69-1.48,2.18-2.53l.16-.21,.07-.21c.25-.08,.43-.18,.16-.44,.03-.13,.06-.27,.1-.4,.25-.11,.38-.24,.09-.45v-1.27c.31-.28,.26-.5-.1-.66l-.09-.4c.29-.27,.1-.37-.16-.44-.05-.06-.07-.12-.07-.19l-.11-.22Zm6.06,.59c-.72,.18-1.8-.35-1.7,1.24,.15,2.35,.03,2.36,1.49,2.51,.29,1.16,.57,2.41,1.27,3.32,1.58,2.04,3.26,3.97,6.01,4.71,2.59,.69,5.08,.75,7.44-.43,3.13-1.56,5.15-4.11,5.89-7.6,.99-.02,1.97-.06,2.96-.07,2.75-.01,2.73,0,2.7-2.71,0-.68-.19-.93-.9-.92-1.58,.03-3.17-.03-4.76-.05,.09-.71-.38-1.26-.57-1.89-.72-2.34-2.54-3.9-4.4-5.25-1.28-.93-2.96-1.52-4.57-1.46-2.68,.09-5.29,.69-7.46,2.48-1.93,1.6-3.01,3.66-3.4,6.12Z"/><path class="cls-15" d="M66.9,40.39c.84-.01,1.69,.16,2.52-.12-.53,.67-1.84,.73-2.52,.12Z"/><path class="cls-15" d="M25.05,47.43c.23-.08,.45-.07,.67,.02-.03,.17-.1,.31-.3,.33-.25,.02-.34-.13-.38-.35Z"/><path class="cls-15" d="M26.55,47.39c.12-.15,.27-.19,.45-.11-.1,.23-.22,.39-.45,.11Z"/><path class="cls-15" d="M24.23,47.33c.09-.09,.15-.04,.19,.05h-.1l-.09-.05Z"/><path class="cls-15" d="M35.23,26.57l-.38-.02c0-.9-.01-1.79,0-2.69,0-.37-.05-.79,.48-.89-.26,1.19-.1,2.4-.09,3.6Z"/><path class="cls-2" d="M26.94,36.2l-.22-.07,.22,.07Z"/><path class="cls-11" d="M25.56,45.04c-1.87,.02-3.27-1.37-3.27-3.26,0-1.76,1.46-3.29,3.17-3.31,1.73-.03,3.38,1.54,3.41,3.25,.03,1.75-1.51,3.3-3.31,3.33Z"/><path class="cls-15" d="M31.12,40.55c.36,.16,.41,.38,.12,.66-.19-.19-.21-.42-.12-.66Z"/><path class="cls-15" d="M31.22,42.49c.29,.22,.16,.34-.09,.45-.09-.17-.06-.33,.09-.45Z"/><path class="cls-15" d="M31.04,43.34c.28,.26,.09,.36-.16,.44-.05-.18,0-.33,.16-.44Z"/><path class="cls-15" d="M30.87,39.71c.26,.07,.44,.17,.16,.44-.16-.11-.21-.26-.16-.44Z"/><path class="cls-15" d="M30.69,39.3l.11,.22-.11-.22Z"/><path class="cls-15" d="M30.81,43.99l-.16,.21,.16-.21Z"/><path class="cls-2" d="M57.14,43.64c-.74,3.48-2.76,6.04-5.89,7.6-2.36,1.18-4.85,1.12-7.44,.43-2.75-.73-4.42-2.66-6.01-4.71-.71-.91-.98-2.16-1.27-3.32,.39-.02,.77-.07,1.16-.07,5.43,0,10.86,0,16.29,0,1.05,0,2.11,.04,3.16,.07Z"/><path class="cls-2" d="M36.75,39.89c.38-2.45,1.46-4.51,3.4-6.12,2.17-1.8,4.78-2.39,7.46-2.48,1.61-.06,3.29,.53,4.57,1.46,1.86,1.35,3.67,2.9,4.4,5.25,.19,.62,.66,1.18,.57,1.89-4.02,.02-8.03,.05-12.05,.06-2.78,0-5.56-.04-8.35-.06Z"/><path class="cls-12" d="M36.75,39.89c2.78,.02,5.56,.06,8.35,.06,4.02,0,8.03-.04,12.05-.06,1.59,.02,3.17,.08,4.76,.05,.71-.01,.89,.24,.9,.92,.03,2.71,.06,2.7-2.7,2.71-.99,0-1.97,.04-2.96,.07-1.05-.02-2.11-.06-3.16-.07-5.43,0-10.86,0-16.29,0-.39,0-.77,.04-1.16,.07-1.46-.15-1.34-.16-1.49-2.51-.1-1.59,.98-1.06,1.7-1.24Z"/></svg>